<svg width="22" height="14" viewBox="0 0 22 14" fill="none" xmlns="http://www.w3.org/2000/svg">
<path d="M9.00929 6.33952C9.53134 6.145 9.9787 5.7907 10.2876 5.32708C10.5966 4.86347 10.7513 4.31419 10.7299 3.75749C10.7299 1.29437 8.86046 0.694336 6.70287 0.694336H0.763184V13.0556H6.86981C9.1589 13.0556 11.3094 11.9776 11.3094 9.46566C11.3624 8.75545 11.1598 8.04968 10.7382 7.47571C10.3165 6.90174 9.70364 6.49738 9.01008 6.33558L9.00929 6.33952ZM3.53183 2.80468H6.1304C7.12887 2.80468 8.02813 3.08029 8.02813 4.21814C8.02813 5.26859 7.3281 5.69066 6.33986 5.69066H3.53183V2.80468ZM6.49262 10.9587H3.53183V7.55375H6.5501C7.76907 7.55375 8.54076 8.05299 8.54076 9.3192C8.54076 10.5681 7.62024 10.9594 6.49341 10.9594L6.49262 10.9587ZM19.2358 2.56058H14.1277V1.34319H19.235L19.2358 2.56058ZM21.2367 8.71208C21.2367 6.06391 19.6618 3.85513 16.7971 3.85513C16.1732 3.83687 15.5522 3.94748 14.973 4.18006C14.3938 4.41264 13.8688 4.76219 13.4308 5.20685C12.9927 5.65152 12.6512 6.18175 12.4273 6.76441C12.2035 7.34706 12.1023 7.96962 12.1299 8.59318C12.0861 9.21879 12.1766 9.84653 12.3952 10.4343C12.6138 11.0221 12.9556 11.5564 13.3975 12.0013C13.8395 12.4463 14.3715 12.7916 14.9578 13.0142C15.5441 13.2368 16.1712 13.3314 16.7971 13.2919C17.7492 13.3727 18.6994 13.115 19.4802 12.5642C20.261 12.0134 20.8225 11.2047 21.0658 10.2807H18.8555C18.6768 10.6484 18.3938 10.9554 18.0417 11.1632C17.6896 11.371 17.2841 11.4705 16.8758 11.4492C16.5706 11.4811 16.262 11.4437 15.9732 11.3399C15.6843 11.236 15.4226 11.0685 15.2074 10.8496C14.9922 10.6307 14.8292 10.3661 14.7303 10.0756C14.6314 9.78498 14.5993 9.47586 14.6364 9.17116H21.2154C21.2257 9.02627 21.2367 8.86878 21.2367 8.71208ZM14.6395 7.62226C14.643 7.3578 14.7005 7.09683 14.8084 6.85537C14.9164 6.61391 15.0725 6.39703 15.2672 6.21802C15.4619 6.03902 15.6911 5.90166 15.9408 5.81436C16.1905 5.72706 16.4553 5.69167 16.7191 5.71035C16.9795 5.68952 17.2413 5.724 17.4873 5.81154C17.7334 5.89908 17.9581 6.03769 18.1468 6.21826C18.3355 6.39883 18.4838 6.61728 18.5821 6.85926C18.6803 7.10124 18.7263 7.36127 18.7169 7.62226H14.6395Z" fill="white"/>
</svg>
