<svg width="14" height="14" viewBox="0 0 14 14" fill="none" xmlns="http://www.w3.org/2000/svg">
<path d="M7.004 3.77221C6.36546 3.77221 5.74126 3.96156 5.21033 4.31631C4.6794 4.67107 4.26559 5.17529 4.02124 5.76522C3.77688 6.35516 3.71294 7.00431 3.83751 7.63058C3.96209 8.25685 4.26957 8.83212 4.72109 9.28363C5.17261 9.73515 5.74787 10.0426 6.37414 10.1672C7.00041 10.2918 7.64956 10.2278 8.2395 9.98349C8.82943 9.73913 9.33366 9.32532 9.68841 8.79439C10.0432 8.26347 10.2325 7.63926 10.2325 7.00072C10.2325 6.57675 10.149 6.15693 9.98676 5.76522C9.82451 5.37352 9.5867 5.01761 9.2869 4.71782C8.98711 4.41802 8.6312 4.18021 8.2395 4.01796C7.84779 3.85572 7.42797 3.77221 7.004 3.77221ZM7.004 9.09926C6.5886 9.09942 6.18249 8.97638 5.83702 8.74571C5.49156 8.51504 5.22226 8.1871 5.06319 7.80337C4.90411 7.41964 4.86241 6.99735 4.94336 6.58992C5.0243 6.18249 5.22425 5.80821 5.51793 5.51443C5.8116 5.22064 6.1858 5.02055 6.59321 4.93945C7.00061 4.85835 7.42291 4.8999 7.8067 5.05883C8.19049 5.21775 8.51853 5.48693 8.74933 5.83231C8.98013 6.17769 9.10332 6.58375 9.10332 6.99915C9.10228 7.55568 8.88079 8.08913 8.48734 8.48273C8.09389 8.87632 7.56052 9.09801 7.004 9.09926ZM11.1192 3.63677C11.1192 3.78581 11.075 3.93151 10.9922 4.05544C10.9094 4.17936 10.7917 4.27595 10.654 4.33299C10.5163 4.39002 10.3648 4.40495 10.2186 4.37587C10.0724 4.34679 9.93812 4.27502 9.83273 4.16963C9.72734 4.06424 9.65556 3.92997 9.62649 3.78378C9.59741 3.6376 9.61233 3.48608 9.66937 3.34838C9.72641 3.21068 9.823 3.09299 9.94692 3.01019C10.0708 2.92738 10.2165 2.88318 10.3656 2.88318C10.4647 2.88329 10.5628 2.903 10.6543 2.94119C10.7458 2.97938 10.8288 3.0353 10.8985 3.10571C10.9683 3.17613 11.0234 3.25965 11.0607 3.35147C11.0981 3.44329 11.1169 3.54159 11.116 3.64071L11.1192 3.63677ZM13.2579 4.40138C13.2785 3.42207 12.9131 2.47395 12.2405 1.76187C11.5271 1.09137 10.5799 0.726267 9.60098 0.744489C8.56077 0.685431 5.44407 0.685431 4.40386 0.744489C3.42396 0.72527 2.47554 1.09079 1.76199 1.76265C1.09048 2.47543 0.725211 3.42308 0.744611 4.40216C0.685553 5.44237 0.685553 8.55986 0.744611 9.59929C0.723939 10.5786 1.08938 11.5267 1.76199 12.2388C2.47567 12.9089 3.42271 13.2739 4.4015 13.2562C5.44171 13.3152 8.55841 13.3152 9.59862 13.2562C10.578 13.2771 11.5262 12.9116 12.2381 12.2388C12.9085 11.5253 13.2736 10.5781 13.2555 9.59929C13.3146 8.55907 13.3146 5.44395 13.2555 4.40216L13.2579 4.40138ZM11.9145 10.7127C11.8076 10.9838 11.6461 11.23 11.4401 11.436C11.234 11.642 10.9878 11.8035 10.7168 11.9104C9.88525 12.2435 7.91743 12.1703 7.004 12.1703C6.09056 12.1703 4.11723 12.2435 3.2912 11.9175C3.02015 11.8106 2.77396 11.6491 2.56793 11.4431C2.3619 11.2371 2.20041 10.9909 2.0935 10.7198C1.76435 9.89064 1.84073 7.92282 1.84073 7.00624C1.84073 6.08965 1.7675 4.11868 2.0935 3.29266C2.19961 3.02118 2.36041 2.77441 2.5659 2.5677C2.7714 2.36098 3.0172 2.19873 3.28805 2.09102C4.11723 1.76265 6.08505 1.83825 7.004 1.83825C7.92294 1.83825 9.89076 1.76502 10.7168 2.09102C10.9878 2.19793 11.234 2.35941 11.4401 2.56545C11.6461 2.77148 11.8076 3.01766 11.9145 3.28872C12.2436 4.1179 12.1673 6.08572 12.1673 7.0023C12.1673 7.91888 12.2405 9.8867 11.9113 10.7167L11.9145 10.7127Z" fill="white"/>
</svg>
