<svg width="14" height="14" viewBox="0 0 14 14" fill="none" xmlns="http://www.w3.org/2000/svg">
<path d="M3.52735 13.2995H0.915402V4.88799H3.52735V13.2995ZM2.2202 3.74069C1.91962 3.74208 1.62538 3.65432 1.37468 3.48849C1.12398 3.32267 0.928089 3.08622 0.811769 2.80906C0.69545 2.5319 0.663931 2.22647 0.721196 1.9314C0.778462 1.63632 0.921941 1.36486 1.13349 1.15132C1.34504 0.937794 1.61515 0.791789 1.90968 0.731774C2.20421 0.671759 2.50992 0.700429 2.78815 0.814158C3.06639 0.927887 3.30465 1.12157 3.47281 1.37071C3.64096 1.61985 3.73147 1.91326 3.73287 2.21383C3.7333 2.61646 3.57452 3.00293 3.29115 3.28895C3.00778 3.57498 2.62281 3.73736 2.2202 3.74069ZM13.3066 13.2995H10.7002V9.20475C10.7002 8.22911 10.6805 6.97708 9.34183 6.97708C7.98349 6.97708 7.77561 8.03698 7.77561 9.13388V13.2995H5.16366V4.88799H7.6693V6.0353H7.70552C7.95609 5.60644 8.31833 5.25361 8.75362 5.0144C9.18892 4.77518 9.68096 4.65856 10.1773 4.67696C12.8208 4.67696 13.3066 6.41799 13.3066 8.67953V13.2995Z" fill="white"/>
</svg>
