<svg width="24" height="24" viewBox="0 0 24 24" fill="none" xmlns="http://www.w3.org/2000/svg">
<path fill-rule="evenodd" clip-rule="evenodd" d="M11.2594 3.69136C11.7078 3.87709 12.0002 4.31466 12.0002 4.80001V19.2C12.0002 19.6854 11.7078 20.1229 11.2594 20.3087C10.811 20.4944 10.2949 20.3917 9.95166 20.0485L5.50314 15.6H2.4002C1.73746 15.6 1.2002 15.0627 1.2002 14.4V9.60001C1.2002 8.93726 1.73746 8.40001 2.4002 8.40001H5.50314L9.95166 3.95148C10.2949 3.60828 10.811 3.50562 11.2594 3.69136Z" fill="white"/>
<path fill-rule="evenodd" clip-rule="evenodd" d="M14.7518 8.75143C15.2204 8.28281 15.9803 8.28281 16.4489 8.75143L18.0004 10.3029L19.5518 8.75143C20.0204 8.28281 20.7803 8.28281 21.2489 8.75143C21.7175 9.22007 21.7175 9.97986 21.2489 10.4485L19.6974 12L21.2489 13.5514C21.7175 14.02 21.7175 14.7799 21.2489 15.2485C20.7803 15.7171 20.0204 15.7171 19.5518 15.2485L18.0004 13.697L16.4489 15.2485C15.9803 15.7171 15.2204 15.7171 14.7518 15.2485C14.2832 14.7799 14.2832 14.02 14.7518 13.5514L16.3033 12L14.7518 10.4485C14.2832 9.97986 14.2832 9.22007 14.7518 8.75143Z" fill="white"/>
</svg>
