<svg width="24" height="24" viewBox="0 0 24 24" fill="none" xmlns="http://www.w3.org/2000/svg">
<path d="M21.0964 16.5205L18.4114 13.8355C17.4524 12.8765 15.8222 13.2601 15.4386 14.5067C15.1509 15.3698 14.192 15.8493 13.3289 15.6575C11.411 15.178 8.82189 12.6847 8.34241 10.671C8.05473 9.80786 8.6301 8.84891 9.49315 8.56127C10.7398 8.17769 11.1234 6.54747 10.1644 5.58853L7.47936 2.90347C6.7122 2.23221 5.56147 2.23221 4.8902 2.90347L3.0682 4.72547C1.2462 6.64337 3.25999 11.7258 7.76705 16.2329C12.2741 20.7399 17.3565 22.8496 19.2744 20.9317L21.0964 19.1097C21.7677 18.3425 21.7677 17.1918 21.0964 16.5205Z" fill="#006CDB"/>
</svg>
