<svg width="20" height="20" viewBox="0 0 20 20" fill="none" xmlns="http://www.w3.org/2000/svg">
<path d="M17.5804 13.7671L15.3429 11.5295C14.5438 10.7304 13.1853 11.0501 12.8656 12.0889C12.6259 12.8082 11.8267 13.2077 11.1075 13.0479C9.50929 12.6483 7.35166 10.5706 6.95209 8.89244C6.71236 8.1732 7.19183 7.37407 7.91104 7.13437C8.9499 6.81472 9.26955 5.45621 8.47043 4.65709L6.23288 2.41954C5.59358 1.86015 4.63464 1.86015 4.07525 2.41954L2.55691 3.93787C1.03858 5.53612 2.71674 9.77148 6.47262 13.5274C10.2285 17.2832 14.4639 19.0413 16.0621 17.4431L17.5804 15.9247C18.1399 15.2854 18.1399 14.3265 17.5804 13.7671Z" fill="white"/>
</svg>
