<svg width="24" height="24" viewBox="0 0 24 24" fill="none" xmlns="http://www.w3.org/2000/svg">
<path fill-rule="evenodd" clip-rule="evenodd" d="M11.2592 3.69136C11.7076 3.87709 12 4.31466 12 4.80001V19.2C12 19.6854 11.7076 20.1229 11.2592 20.3087C10.8108 20.4944 10.2946 20.3917 9.95142 20.0485L5.5029 15.6H2.39995C1.73722 15.6 1.19995 15.0627 1.19995 14.4V9.60001C1.19995 8.93726 1.73722 8.40001 2.39995 8.40001H5.5029L9.95142 3.95148C10.2946 3.60828 10.8108 3.50562 11.2592 3.69136Z" fill="white"/>
<g clip-path="url(#clip0_571_7845)">
<path d="M12.1867 17.4919C12.1867 17.8051 12.0202 18.0896 11.7595 18.2224C11.6587 18.2742 11.5508 18.2992 11.4435 18.2992C11.2736 18.2992 11.1052 18.2358 10.9693 18.1133L6.90679 14.456H4.7431C4.33277 14.4564 4 14.0947 4 13.6489V10.4324C4 9.98644 4.33277 9.62491 4.7431 9.62491H6.90696L10.9695 5.96763C11.1914 5.76776 11.4992 5.72515 11.7597 5.8589C12.0202 5.9917 12.1869 6.27641 12.1869 6.5894L12.1867 17.4919ZM15.0425 16.2304C15.0244 16.2317 15.007 16.2325 14.9891 16.2325C14.7928 16.2325 14.6035 16.1482 14.4637 15.9961L14.3643 15.8878C14.1037 15.6052 14.0731 15.1575 14.2926 14.8361C14.8491 14.0209 15.1428 13.0546 15.1428 12.0409C15.1428 10.9506 14.8093 9.92797 14.1782 9.08339C13.938 8.76238 13.9602 8.29614 14.2294 8.00378L14.3286 7.89582C14.4771 7.73455 14.676 7.64665 14.8913 7.6606C15.1009 7.67207 15.2967 7.77926 15.4296 7.95582C16.305 9.11951 16.7674 10.5324 16.7674 12.0411C16.7674 13.4463 16.3585 14.7839 15.5846 15.9086C15.4553 16.0961 15.2576 16.2138 15.0425 16.2304ZM18.1148 18.7253C17.9804 18.8979 17.7861 19.0014 17.578 19.011C17.5678 19.0114 17.5575 19.0118 17.5469 19.0118C17.3501 19.0118 17.1612 18.9273 17.0214 18.7754L16.9238 18.6693C16.651 18.3732 16.6325 17.8995 16.8805 17.5788C18.0789 16.0303 18.7392 14.0637 18.7392 12.0409C18.7392 9.93695 18.0323 7.91149 16.7493 6.33775C16.4891 6.01826 16.5023 5.53464 16.7792 5.23273L16.8766 5.12668C17.0212 4.96885 17.209 4.88191 17.4245 4.88936C17.629 4.89566 17.8225 4.99388 17.9585 5.16012C19.5094 7.05717 20.3636 9.50109 20.3636 12.0409C20.364 14.4847 19.5653 16.8587 18.1148 18.7253Z" fill="white"/>
</g>
<defs>
<clipPath id="clip0_571_7845">
<rect width="9" height="16" fill="white" transform="translate(13 4)"/>
</clipPath>
</defs>
</svg>
