<svg width="24" height="24" viewBox="0 0 24 24" fill="none" xmlns="http://www.w3.org/2000/svg">
<path d="M22.6299 2.77999L18.8699 20.25C18.7899 20.63 18.5399 20.95 18.1899 21.12C17.8399 21.29 17.4399 21.29 17.0799 21.12L14.2799 19.76C14.2799 19.76 10.6999 22.35 9.96988 22.69C9.82988 22.76 9.76988 22.75 9.66988 22.75C9.52988 22.75 9.37988 22.71 9.25988 22.63C9.04988 22.49 8.91988 22.26 8.91988 22.01V16.7C8.90988 16.59 8.91988 16.48 8.97988 16.37C8.97988 16.37 8.98988 16.35 8.99988 16.34C9.02988 16.29 9.05988 16.24 9.09988 16.19L18.3099 6.10999L6.85988 15.53C6.76988 15.62 6.64988 15.7 6.51988 15.73C6.30988 15.79 6.07988 15.75 5.89988 15.63L2.04988 13.89C1.61988 13.68 1.34988 13.26 1.32988 12.78C1.31988 12.31 1.56988 11.87 1.98988 11.64L20.7899 1.40999C21.2299 1.16999 21.7499 1.20999 22.1599 1.50999C22.5599 1.80999 22.7399 2.29999 22.6399 2.77999H22.6299Z" fill="white"/>
</svg>
