<svg width="12" height="14" viewBox="0 0 12 14" fill="none" xmlns="http://www.w3.org/2000/svg">
<path d="M6.27714 0.711409C6.9693 0.701172 7.65753 0.706684 8.34496 0.701172C8.36678 1.52133 8.6972 2.30307 9.27021 2.89026C9.89213 3.44415 10.6811 3.77474 11.5121 3.82968V5.94554C10.7451 5.92707 9.98978 5.75377 9.29147 5.43607C8.99402 5.29511 8.70763 5.1319 8.43473 4.94785C8.42922 6.481 8.44024 8.01337 8.4245 9.54101C8.38407 10.2835 8.13697 11 7.71107 11.6096C7.35806 12.115 6.89155 12.5307 6.34895 12.8233C5.80635 13.116 5.20274 13.2774 4.5865 13.2947C3.83016 13.3289 3.08037 13.1408 2.42969 12.7538C1.89577 12.4402 1.44291 12.0056 1.10755 11.4851C0.7722 10.9646 0.563717 10.3726 0.498881 9.75677C0.488644 9.49455 0.483132 9.23154 0.493369 8.97484C0.549589 8.43445 0.716011 7.91133 0.982355 7.43779C1.2487 6.96425 1.60931 6.55035 2.04191 6.22166C2.4745 5.89297 2.9699 5.65647 3.49749 5.52677C4.02509 5.39706 4.57367 5.37691 5.10936 5.46756C5.1196 6.24477 5.0881 7.02119 5.0881 7.7984C4.82431 7.70933 4.54391 7.68057 4.26754 7.71423C3.99116 7.74789 3.72586 7.84312 3.49116 7.99289C3.15744 8.21231 2.90488 8.53512 2.77223 8.91184C2.68946 9.18535 2.66426 9.47303 2.69821 9.75677C2.76031 10.1175 2.93023 10.4509 3.18559 10.7131C3.44095 10.9753 3.76976 11.154 4.1287 11.2256C4.48763 11.2972 4.85984 11.2584 5.19627 11.1143C5.53271 10.9702 5.81758 10.7275 6.01334 10.4182C6.13106 10.2537 6.20552 10.0623 6.22989 9.8615C6.28265 8.92208 6.26139 7.98738 6.2669 7.04796C6.27241 4.9321 6.2606 2.82176 6.27714 0.711409Z" fill="white"/>
</svg>
