<svg width="48" height="48" viewBox="0 0 48 48" fill="none" xmlns="http://www.w3.org/2000/svg">
<path d="M24 48C37.2548 48 48 37.2548 48 24C48 10.7452 37.2548 0 24 0C10.7452 0 0 10.7452 0 24C0 37.2548 10.7452 48 24 48Z" fill="#29A71A"/>
<path d="M33.0403 14.8191C30.8786 12.6358 28.0078 11.2969 24.9458 11.0438C21.8838 10.7907 18.8321 11.6402 16.3413 13.4389C13.8504 15.2377 12.0843 17.8674 11.3616 20.8536C10.6388 23.8398 11.007 26.986 12.3996 29.7247L11.0326 36.3617C11.0184 36.4278 11.018 36.496 11.0314 36.5623C11.0448 36.6285 11.0717 36.6912 11.1105 36.7466C11.1673 36.8306 11.2483 36.8952 11.3428 36.9319C11.4373 36.9686 11.5408 36.9756 11.6394 36.952L18.1442 35.4102C20.8752 36.7676 23.9992 37.1121 26.9603 36.3823C29.9214 35.6526 32.5276 33.896 34.3152 31.4251C36.1027 28.9541 36.9556 25.9291 36.7222 22.8884C36.4887 19.8476 35.1841 16.9883 33.0403 14.8191ZM31.0121 31.0068C29.5164 32.4983 27.5904 33.4828 25.5055 33.8217C23.4206 34.1605 21.2819 33.8367 19.3908 32.8956L18.4842 32.447L14.4963 33.3915L14.5081 33.3419L15.3345 29.328L14.8906 28.4521C13.9243 26.5544 13.5835 24.3996 13.9169 22.2963C14.2502 20.1931 15.2407 18.2493 16.7464 16.7434C18.6384 14.8521 21.2041 13.7895 23.8793 13.7895C26.5545 13.7895 29.1202 14.8521 31.0121 16.7434C31.0282 16.7619 31.0456 16.7793 31.0641 16.7954C32.9326 18.6916 33.9756 21.2496 33.9659 23.9118C33.9562 26.5739 32.8944 29.1242 31.0121 31.0068Z" fill="white"/>
<path d="M30.6577 28.0625C30.169 28.8322 29.3969 29.7743 28.4265 30.008C26.7265 30.4189 24.1175 30.0222 20.871 26.9953L20.8309 26.9599C17.9763 24.3131 17.2349 22.1102 17.4144 20.363C17.5135 19.3713 18.3399 18.4741 19.0364 17.8886C19.1466 17.7946 19.2771 17.7277 19.4177 17.6932C19.5584 17.6587 19.7051 17.6576 19.8462 17.6899C19.9873 17.7223 20.1189 17.7872 20.2304 17.8795C20.3419 17.9718 20.4303 18.0889 20.4885 18.2215L21.5392 20.5826C21.6075 20.7356 21.6328 20.9044 21.6124 21.0708C21.592 21.2372 21.5267 21.3949 21.4235 21.527L20.8923 22.2164C20.7783 22.3588 20.7095 22.532 20.6948 22.7138C20.68 22.8955 20.72 23.0776 20.8096 23.2364C21.1071 23.7582 21.8202 24.5256 22.6111 25.2363C23.4989 26.039 24.4835 26.7733 25.1068 27.0236C25.2736 27.0917 25.457 27.1084 25.6333 27.0713C25.8096 27.0343 25.9708 26.9453 26.0961 26.8158L26.7123 26.1949C26.8313 26.0776 26.9791 25.994 27.1409 25.9525C27.3026 25.911 27.4725 25.9132 27.6332 25.9588L30.1288 26.6671C30.2665 26.7093 30.3927 26.7825 30.4978 26.8809C30.6028 26.9794 30.684 27.1006 30.735 27.2353C30.786 27.3699 30.8056 27.5145 30.7922 27.6578C30.7788 27.8012 30.7328 27.9396 30.6577 28.0625Z" fill="white"/>
</svg>
