<svg width="20" height="14" viewBox="0 0 20 14" fill="none" xmlns="http://www.w3.org/2000/svg">
<path d="M19.054 2.66978C18.9394 2.28097 18.7248 1.92906 18.4316 1.64923C18.1383 1.3694 17.7768 1.17146 17.383 1.07521C15.9097 0.701172 9.99997 0.701172 9.99997 0.701172C9.99997 0.701172 4.09414 0.701172 2.61611 1.07836C2.22275 1.17433 1.86143 1.3718 1.56823 1.65105C1.27502 1.93029 1.06019 2.28156 0.945159 2.66978C0.673245 4.10062 0.541382 5.55454 0.551438 7.01095C0.541382 8.46736 0.673245 9.92129 0.945159 11.3521C1.06063 11.7378 1.276 12.0861 1.56944 12.3617C1.86289 12.6373 2.22398 12.8304 2.61611 12.9215C4.09021 13.2987 9.99997 13.2987 9.99997 13.2987C9.99997 13.2987 15.9058 13.2987 17.3838 12.9215C17.776 12.8304 18.137 12.6373 18.4305 12.3617C18.7239 12.0861 18.9393 11.7378 19.0548 11.3521C19.3267 9.92129 19.4586 8.46736 19.4485 7.01095C19.4583 5.55452 19.3262 4.10059 19.054 2.66978ZM8.07073 9.67802V4.3494L13.0104 7.0141L8.07073 9.67802Z" fill="white"/>
</svg>
